<svg version="1.1" xmlns="http://www.w3.org/2000/svg" xmlns:xlink="http://www.w3.org/1999/xlink" width="251.48699" height="123.45922" viewBox="0,0,251.48699,123.45922"><defs><radialGradient cx="97.76059" cy="154.7315" r="1.27468" gradientUnits="userSpaceOnUse" id="color-1"><stop offset="0" stop-color="#000000"/><stop offset="1" stop-color="#585858"/></radialGradient><radialGradient cx="80.0259" cy="164.43015" r="0.38795" gradientUnits="userSpaceOnUse" id="color-2"><stop offset="0" stop-color="#ffffff"/><stop offset="1" stop-color="#585858"/></radialGradient><radialGradient cx="290.31705" cy="112.35028" r="1.27468" gradientUnits="userSpaceOnUse" id="color-3"><stop offset="0" stop-color="#000000"/><stop offset="1" stop-color="#585858"/></radialGradient><radialGradient cx="272.58237" cy="122.04893" r="0.38795" gradientUnits="userSpaceOnUse" id="color-4"><stop offset="0" stop-color="#ffffff"/><stop offset="1" stop-color="#585858"/></radialGradient></defs><g transform="translate(-68.97172,-68.30625)"><g data-paper-data="{&quot;isPaintingLayer&quot;:true}" fill-rule="nonzero" stroke-linejoin="miter" stroke-miterlimit="10" stroke-dasharray="" stroke-dashoffset="0" style="mix-blend-mode: normal"><path d="" fill="#000000" stroke="none" stroke-width="0.5" stroke-linecap="butt"/><g stroke="#5f5f5f" stroke-width="1.5"><path d="M98.81358,154.7315c0,0.70399 -0.47144,1.27468 -1.053,1.27468c-0.58155,0 -1.053,-0.57069 -1.053,-1.27468c0,-0.70399 0.47144,-1.27468 1.053,-1.27468c0.58155,0 1.053,0.57069 1.053,1.27468z" fill="url(#color-1)" stroke-linecap="butt"/><path d="M80.41386,164.43015c0,0.06122 -0.17369,0.11084 -0.38795,0.11084c-0.21426,0 -0.38795,-0.04963 -0.38795,-0.11084c0,-0.06122 0.17369,-0.11084 0.38795,-0.11084c0.21426,0 0.38795,0.04963 0.38795,0.11084z" fill="url(#color-2)" stroke-linecap="butt"/><g fill="none" stroke-linecap="round"><g><path d="M100.32488,158.53662l12.14859,20.50637c0,0 -4.62759,-1.67897 -8.136,-0.59848c-3.50841,1.08049 -6.47262,5.09753 -6.47262,5.09753l0.58918,-23.69337l-0.00544,-1.17825l0.08402,-2.12754z"/><path d="M98.19856,172.9231c0,0 1.83705,-3.2783 4.15225,-3.5782c2.31521,-0.29989 5.51105,2.32648 5.51105,2.32648"/><path d="M98.3513,165.33384c0,0 1.04722,-1.85172 2.34571,-2.03306c1.29848,-0.18134 3.07396,1.27618 3.07396,1.27618"/></g><g><path d="M98.57258,158.77886l-1.12739,23.80816c0,0 -2.9422,-3.94677 -6.46679,-4.97326c-3.52459,-1.02649 -8.20919,0.69908 -8.20919,0.69908l13.5193,-19.46669l0.64328,-0.98717l1.23995,-1.7309z"/><path d="M88.88649,169.62652c0,0 3.33694,-1.72825 5.43568,-0.70579c2.09874,1.02245 3.32412,4.97337 3.32412,4.97337"/><path d="M93.18683,163.37134c0,0 1.89285,-0.97092 3.07715,-0.40845c1.1843,0.56247 1.86594,2.75611 1.86594,2.75611"/></g><g><g><path d="M96.36553,158.30396l-13.81273,19.42442c0,0 -0.34321,-4.91078 -2.75437,-7.67894c-2.41116,-2.76816 -7.28542,-3.84736 -7.28542,-3.84736l21.89421,-9.07562l1.07468,-0.48308l1.97861,-0.78651z"/><path d="M82.35384,162.1982c0,0 3.74171,0.34877 4.95525,2.34312c1.21354,1.99435 0.10989,5.98098 0.10989,5.98098"/><path d="M89.35222,159.25829c0,0 2.11736,0.20575 2.80999,1.31895c0.69263,1.1132 0.08093,3.32736 0.08093,3.32736"/></g><g><path d="M95.43309,156.8007l-22.21751,8.63029c0,0 2.41339,-4.29058 1.92139,-7.92849c-0.492,-3.63791 -3.97,-7.21932 -3.97,-7.21932l23.2778,4.45725l1.16327,0.18738l2.08514,0.43093z"/><path d="M81.58826,152.34955c0,0 2.93362,2.3486 2.85072,4.68167c-0.08289,2.33308 -3.19669,5.05621 -3.19669,5.05621"/><path d="M89.05029,153.74176c0,0 1.65547,1.33604 1.62194,2.6467c-0.03352,1.31065 -1.76187,2.82378 -1.76187,2.82378"/></g></g></g><g fill="none" stroke-linecap="round"><g><path d="M99.01447,151.55171l7.53724,-22.61171c0,0 1.76252,4.59642 4.87704,6.53966c3.11452,1.94324 8.09145,1.55178 8.09145,1.55178l-18.28889,15.07448l-0.88674,0.77589l-1.66263,1.3301z"/><path d="M111.27782,143.73492c0,0 -3.68042,0.75927 -5.42354,-0.79369c-1.74312,-1.55296 -1.85194,-5.6881 -1.85194,-5.6881"/><path d="M105.44323,148.59063c0,0 -2.08514,0.42163 -3.07269,-0.44074c-0.98756,-0.86237 -1.04921,-3.15865 -1.04921,-3.15865"/></g><g><path d="M100.34529,152.71709l18.72816,-14.74299c0,0 -1.05502,4.80837 0.47804,8.14396c1.53306,3.33559 5.90543,5.74504 5.90543,5.74504l-23.56466,2.53577l-1.16727,0.16054l-2.12008,0.19686z"/><path d="M114.8865,152.93054c0,0 -3.49165,-1.38938 -4.09379,-3.64494c-0.60214,-2.25556 1.58056,-5.7694 1.58056,-5.7694"/><path d="M107.34321,153.77845c0,0 -1.97349,-0.79428 -2.32423,-2.05758c-0.35074,-1.2633 0.86031,-3.21524 0.86031,-3.21524"/></g><g><g><path d="M101.43214,154.69584l23.72492,-2.28637c0,0 -3.48583,3.47599 -3.99811,7.1111c-0.51229,3.6351 1.86499,8.02504 1.86499,8.02504l-21.19881,-10.59876l-1.06896,-0.49562l-1.89033,-0.97988z"/><path d="M113.55261,162.73239c0,0 -2.18737,-3.05572 -1.47531,-5.27903c0.71205,-2.22331 4.44731,-4.0007 4.44731,-4.0007"/><path d="M106.7471,159.37006c0,0 -1.23144,-1.73468 -0.84399,-2.9872c0.38746,-1.25253 2.46118,-2.24064 2.46118,-2.24064"/></g><g><path d="M100.90702,156.38506l21.07408,11.13476c0,0 -4.82283,0.98684 -7.2494,3.7415c-2.42657,2.75467 -2.85456,7.72859 -2.85456,7.72859l-11.87952,-20.50854l-0.62038,-1.00172l-1.04019,-1.85782z"/><path d="M106.61234,169.76196c0,0 -0.14696,-3.75505 1.67023,-5.22064c1.81719,-1.46558 5.91443,-0.89647 5.91443,-0.89647"/><path d="M102.7765,163.21164c0,0 -0.07484,-2.12602 0.93746,-2.9592c1.0123,-0.83318 3.28773,-0.51835 3.28773,-0.51835"/></g></g></g><g fill="none" stroke-linecap="round"><g><path d="M94.91159,154.40269l-23.56227,-3.59428c0,0 4.23103,-2.51632 5.61808,-5.91523c1.38704,-3.3989 0.15741,-8.2374 0.15741,-8.2374l17.95711,15.46821l0.915,0.74234l1.59274,1.41303z"/><path d="M85.12871,143.64223c0,0 1.37229,3.49841 0.13737,5.47958c-1.23493,1.98118 -5.29174,2.78955 -5.29174,2.78955"/><path d="M90.90338,148.56904c0,0 0.76906,1.98346 0.08662,3.10293c-0.68244,1.11947 -2.93502,1.56957 -2.93502,1.56957"/></g><g><g><path d="M95.67488,151.94953l-17.88459,-15.75566c0,0 4.91986,0.16874 7.9235,-1.94185c3.00364,-2.11058 4.5833,-6.84638 4.5833,-6.84638l6.75234,22.71847l0.36883,1.11905l0.57673,2.04961z"/><path d="M93.25712,137.60914c0,0 -0.73554,3.68524 -2.84515,4.68506c-2.10961,0.99982 -5.96004,-0.51196 -5.96004,-0.51196"/><path d="M95.4542,144.87503c0,0 -0.42458,2.08454 -1.6037,2.65779c-1.17912,0.57325 -3.31777,-0.26513 -3.31777,-0.26513"/></g><g><path d="M97.26686,151.17828l-6.27584,-22.99377c0,0 4.01669,2.846 7.68602,2.73454c3.66933,-0.11146 7.59264,-3.19864 7.59264,-3.19864l-6.85104,22.6889l-0.3072,1.13752l-0.64519,2.02909z"/><path d="M103.13203,137.87069c0,0 -2.64061,2.67379 -4.95246,2.34901c-2.31185,-0.32478 -4.69682,-3.7046 -4.69682,-3.7046"/><path d="M100.97225,145.14775c0,0 -1.50077,1.50773 -2.80085,1.33825c-1.30008,-0.16948 -2.6255,-2.04564 -2.6255,-2.04564"/></g></g></g></g><g stroke="#5f5f5f" stroke-width="1.5"><path d="M291.37004,112.35028c0,0.70399 -0.47144,1.27468 -1.053,1.27468c-0.58155,0 -1.053,-0.57069 -1.053,-1.27468c0,-0.70399 0.47144,-1.27468 1.053,-1.27468c0.58155,0 1.053,0.57069 1.053,1.27468z" fill="url(#color-3)" stroke-linecap="butt"/><path d="M272.97032,122.04893c0,0.06122 -0.17369,0.11084 -0.38795,0.11084c-0.21426,0 -0.38795,-0.04963 -0.38795,-0.11084c0,-0.06122 0.17369,-0.11084 0.38795,-0.11084c0.21426,0 0.38795,0.04963 0.38795,0.11084z" fill="url(#color-4)" stroke-linecap="butt"/><g fill="none" stroke-linecap="round"><g><path d="M292.88134,116.1554l12.14859,20.50637c0,0 -4.62759,-1.67897 -8.136,-0.59848c-3.50841,1.08049 -6.47262,5.09753 -6.47262,5.09753l0.58918,-23.69337l-0.00544,-1.17825l0.08402,-2.12754z"/><path d="M290.75502,130.54188c0,0 1.83705,-3.2783 4.15225,-3.5782c2.31521,-0.29989 5.51105,2.32648 5.51105,2.32648"/><path d="M290.90776,122.95261c0,0 1.04722,-1.85172 2.34571,-2.03306c1.29848,-0.18134 3.07396,1.27618 3.07396,1.27618"/></g><g><path d="M291.12904,116.39763l-1.12739,23.80816c0,0 -2.9422,-3.94677 -6.46679,-4.97326c-3.52459,-1.02649 -8.20919,0.69908 -8.20919,0.69908l13.5193,-19.46669l0.64328,-0.98717l1.23995,-1.7309z"/><path d="M281.44295,127.2453c0,0 3.33694,-1.72825 5.43568,-0.70579c2.09874,1.02245 3.32412,4.97337 3.32412,4.97337"/><path d="M285.74329,120.99012c0,0 1.89285,-0.97092 3.07715,-0.40845c1.1843,0.56247 1.86594,2.75611 1.86594,2.75611"/></g><g><g><path d="M288.92199,115.92274l-13.81273,19.42442c0,0 -0.34321,-4.91078 -2.75437,-7.67894c-2.41116,-2.76816 -7.28542,-3.84736 -7.28542,-3.84736l21.89421,-9.07562l1.07468,-0.48308l1.97861,-0.78651z"/><path d="M274.9103,119.81698c0,0 3.74171,0.34877 4.95525,2.34312c1.21354,1.99435 0.10989,5.98098 0.10989,5.98098"/><path d="M281.90868,116.87707c0,0 2.11736,0.20575 2.80999,1.31895c0.69263,1.1132 0.08093,3.32736 0.08093,3.32736"/></g><g><path d="M287.98955,114.41947l-22.21751,8.63029c0,0 2.41339,-4.29058 1.92139,-7.92849c-0.492,-3.63791 -3.97,-7.21932 -3.97,-7.21932l23.2778,4.45725l1.16327,0.18738l2.08514,0.43093z"/><path d="M274.14472,109.96833c0,0 2.93362,2.3486 2.85072,4.68167c-0.08289,2.33308 -3.19669,5.05621 -3.19669,5.05621"/><path d="M281.60675,111.36054c0,0 1.65547,1.33604 1.62194,2.6467c-0.03352,1.31065 -1.76187,2.82378 -1.76187,2.82378"/></g></g></g><g fill="none" stroke-linecap="round"><g><path d="M291.57093,109.17049l7.53724,-22.61171c0,0 1.76252,4.59642 4.87704,6.53966c3.11452,1.94324 8.09145,1.55178 8.09145,1.55178l-18.28889,15.07448l-0.88674,0.77589l-1.66263,1.3301z"/><path d="M303.83428,101.3537c0,0 -3.68042,0.75927 -5.42354,-0.79369c-1.74312,-1.55296 -1.85194,-5.6881 -1.85194,-5.6881"/><path d="M297.99971,106.20941c0,0 -2.08514,0.42163 -3.07269,-0.44074c-0.98756,-0.86237 -1.04921,-3.15865 -1.04921,-3.15865"/></g><g><path d="M292.90175,110.33587l18.72816,-14.74299c0,0 -1.05502,4.80837 0.47804,8.14396c1.53306,3.33559 5.90543,5.74504 5.90543,5.74504l-23.56466,2.53577l-1.16727,0.16054l-2.12008,0.19686z"/><path d="M307.44296,110.54931c0,0 -3.49165,-1.38938 -4.09379,-3.64494c-0.60214,-2.25556 1.58056,-5.7694 1.58056,-5.7694"/><path d="M299.89967,111.39723c0,0 -1.97349,-0.79428 -2.32423,-2.05758c-0.35074,-1.2633 0.86031,-3.21524 0.86031,-3.21524"/></g><g><g><path d="M293.9886,112.31462l23.72492,-2.28637c0,0 -3.48583,3.47599 -3.99811,7.1111c-0.51229,3.6351 1.86499,8.02504 1.86499,8.02504l-21.19881,-10.59876l-1.06896,-0.49562l-1.89033,-0.97988z"/><path d="M306.10907,120.35116c0,0 -2.18737,-3.05572 -1.47531,-5.27903c0.71205,-2.22331 4.44731,-4.0007 4.44731,-4.0007"/><path d="M299.30356,116.98884c0,0 -1.23144,-1.73468 -0.84399,-2.9872c0.38746,-1.25253 2.46118,-2.24064 2.46118,-2.24064"/></g><g><path d="M293.46348,114.00383l21.07408,11.13476c0,0 -4.82283,0.98684 -7.2494,3.7415c-2.42657,2.75467 -2.85456,7.72859 -2.85456,7.72859l-11.87952,-20.50854l-0.62038,-1.00172l-1.04019,-1.85782z"/><path d="M299.1688,127.38074c0,0 -0.14696,-3.75505 1.67023,-5.22064c1.81719,-1.46558 5.91443,-0.89647 5.91443,-0.89647"/><path d="M295.33298,120.83042c0,0 -0.07484,-2.12602 0.93746,-2.9592c1.0123,-0.83318 3.28773,-0.51835 3.28773,-0.51835"/></g></g></g><g fill="none" stroke-linecap="round"><g><path d="M287.46805,112.02146l-23.56227,-3.59428c0,0 4.23103,-2.51632 5.61808,-5.91523c1.38704,-3.3989 0.15741,-8.2374 0.15741,-8.2374l17.95711,15.46821l0.915,0.74234l1.59274,1.41303z"/><path d="M277.68517,101.26101c0,0 1.37229,3.49841 0.13737,5.47958c-1.23493,1.98118 -5.29174,2.78955 -5.29174,2.78955"/><path d="M283.45984,106.18782c0,0 0.76906,1.98346 0.08662,3.10293c-0.68244,1.11947 -2.93502,1.56957 -2.93502,1.56957"/></g><g><g><path d="M288.23134,109.5683l-17.88459,-15.75566c0,0 4.91986,0.16874 7.9235,-1.94185c3.00364,-2.11058 4.5833,-6.84638 4.5833,-6.84638l6.75234,22.71847l0.36883,1.11905l0.57673,2.04961z"/><path d="M285.81358,95.22792c0,0 -0.73554,3.68524 -2.84515,4.68506c-2.10961,0.99982 -5.96004,-0.51196 -5.96004,-0.51196"/><path d="M288.01066,102.49381c0,0 -0.42458,2.08454 -1.6037,2.65779c-1.17912,0.57325 -3.31777,-0.26513 -3.31777,-0.26513"/></g><g><path d="M289.82332,108.79706l-6.27584,-22.99377c0,0 4.01669,2.846 7.68602,2.73454c3.66933,-0.11146 7.59264,-3.19864 7.59264,-3.19864l-6.85104,22.6889l-0.3072,1.13752l-0.64519,2.02909z"/><path d="M295.68849,95.48947c0,0 -2.64061,2.67379 -4.95246,2.34901c-2.31185,-0.32478 -4.69682,-3.7046 -4.69682,-3.7046"/><path d="M293.52871,102.76653c0,0 -1.50077,1.50773 -2.80085,1.33825c-1.30008,-0.16948 -2.6255,-2.04564 -2.6255,-2.04564"/></g></g></g></g><path d="M195.71507,170.40692c0,0 -0.4433,-3.12735 -4.21578,-3.3774c-3.77248,-0.25005 -4.16986,2.89769 -8.4501,2.53789c-4.28025,-0.3598 -4.27097,-3.60724 -4.27097,-3.60724" fill="none" stroke="#00f2ff" stroke-width="2.5" stroke-linecap="round"/><g data-paper-data="{&quot;index&quot;:null}"><path d="M189.21311,153.52371c-1.88132,-0.24129 -3.24505,-1.6951 -3.04599,-3.2472c0.19906,-1.55209 1.88555,-2.61471 3.76687,-2.37342c1.88133,0.2413 3.24507,1.69512 3.04601,3.24722c-0.19907,1.55209 -1.88557,2.6147 -3.76689,2.37341z" data-paper-data="{&quot;index&quot;:null}" fill="#00f2ff" stroke="none" stroke-width="0" stroke-linecap="butt"/><path d="M195.71745,146.09373l6.48655,-5.06976" data-paper-data="{&quot;index&quot;:null}" fill="none" stroke="#00f2ff" stroke-width="2" stroke-linecap="round"/><path d="M196.95303,147.69149l6.98443,-4.35838" data-paper-data="{&quot;index&quot;:null}" fill="none" stroke="#00f2ff" stroke-width="2" stroke-linecap="round"/><path d="M189.82047,149.21729l-4.16392,7.10208" data-paper-data="{&quot;index&quot;:null}" fill="none" stroke="#00f2ff" stroke-width="2" stroke-linecap="round"/><path d="M197.28492,148.03872c0,0 -8.78376,3.15805 -9.13067,2.17794c-0.34691,-0.98011 7.84764,-5.80283 7.84764,-5.80283z" data-paper-data="{&quot;index&quot;:null}" fill="#00f2ff" stroke="none" stroke-width="0" stroke-linecap="butt"/><path d="M199.41064,147.73736l-6.99049,3.89013l-2.17931,-3.91618l6.99049,-3.89012z" data-paper-data="{&quot;index&quot;:null}" fill="#00f2ff" stroke="none" stroke-width="0" stroke-linecap="butt"/><path d="M188.75958,158.52542l3.62749,-7.39047" data-paper-data="{&quot;index&quot;:null}" fill="none" stroke="#00f2ff" stroke-width="2" stroke-linecap="round"/></g><g data-paper-data="{&quot;index&quot;:null}"><path d="M209.11392,174.33899c0.87475,-0.9402 2.44843,-0.81631 3.51488,0.27672c1.06646,1.09304 1.22186,2.74129 0.34711,3.68149c-0.87475,0.9402 -2.44843,0.81631 -3.51489,-0.27673c-1.06646,-1.09304 -1.22186,-2.74129 -0.34711,-3.68148z" data-paper-data="{&quot;index&quot;:null}" fill="#4e00ff" stroke="none" stroke-width="0" stroke-linecap="butt"/><path d="M216.63602,186.93447c0,0 -5.25088,-7.48315 -4.20462,-8.88155c1.04627,-1.39841 8.07418,3.70962 8.07418,3.70962z" data-paper-data="{&quot;index&quot;:null}" fill="#4e00ff" stroke="none" stroke-width="0" stroke-linecap="butt"/><path d="M217.33434,182.49518l6.84117,2.82646" data-paper-data="{&quot;index&quot;:null}" fill="#ffa000" stroke="#4e00ff" stroke-width="2" stroke-linecap="round"/><path d="M223.37098,187.17728l-6.52705,-3.53247" data-paper-data="{&quot;index&quot;:null}" fill="#ffa000" stroke="#4e00ff" stroke-width="2" stroke-linecap="round"/><path d="M212.07361,178.86032l4.83336,5.78845" data-paper-data="{&quot;index&quot;:null}" fill="#ffa000" stroke="#4e00ff" stroke-width="2" stroke-linecap="round"/><path d="M220.78848,180.15886l-7.1899,-1.69009" data-paper-data="{&quot;index&quot;:null}" fill="#ffa000" stroke="#4e00ff" stroke-width="2" stroke-linecap="round"/><path d="M207.09197,177.13859c0.06885,0.01727 0.10667,-0.01168 0.12645,-0.06957c-0.05746,0.01564 -0.11679,0.03051 -0.17705,0.04384c0.01436,0.01193 0.03101,0.0208 0.05061,0.02572zM205.93564,176.08393c0.28851,-1.21522 4.26318,-0.86743 5.01537,-0.85204c0,0 0.44896,0.00973 0.43163,0.48138c-0.01734,0.47166 -0.46629,0.46194 -0.46629,0.46194c-0.32525,-0.0074 -1.15176,0.07488 -1.94773,0.13549c-0.04868,0.13367 -0.15378,0.24384 -0.2939,0.2893l-0.66991,0.21728c-0.69698,0.89296 -1.34303,1.70631 -1.76432,0.30344c-0.2892,-0.10604 -0.45695,-0.3961 -0.30483,-1.03681z" data-paper-data="{&quot;index&quot;:null}" fill="#4e00ff" stroke="none" stroke-width="0.5" stroke-linecap="butt"/><path d="M222.6437,176.85278l-2.87234,-0.92046l3.29027,-0.86161l-2.7589,-1.19846" fill="none" stroke="#4e00ff" stroke-width="0.5" stroke-linecap="round"/><path d="M227.83736,176.63301l-2.12303,-0.68034l2.43193,-0.63684l-2.03918,-0.88581" fill="none" stroke="#4e00ff" stroke-width="0.5" stroke-linecap="round"/><path d="M233.37274,175.57582l-1.8465,-0.59173l2.11516,-0.55389l-1.77357,-0.77043" fill="none" stroke="#4e00ff" stroke-width="0.5" stroke-linecap="round"/></g><g><path d="M167.80257,158.33731c-0.93858,1.38563 -2.62616,1.88119 -3.76929,1.10686c-1.14314,-0.77433 -1.30898,-2.52533 -0.3704,-3.91096c0.93858,-1.38563 2.62616,-1.88119 3.76929,-1.10686c1.14314,0.77433 1.30898,2.52531 0.3704,3.91094z" data-paper-data="{&quot;index&quot;:null}" fill="#00f314" stroke="none" stroke-width="0" stroke-linecap="butt"/><path d="M156.78699,164.63628c0,0 6.61094,-6.9517 8.03388,-5.74063c1.42294,1.21107 -2.77124,10.2197 -2.77124,10.2197z" data-paper-data="{&quot;index&quot;:null}" fill="#00f314" stroke="none" stroke-width="0" stroke-linecap="butt"/><path d="M153.51603,169.19412l6.87139,-4.53453" data-paper-data="{&quot;index&quot;:null}" fill="#ffa000" stroke="#00f314" stroke-width="2" stroke-linecap="round"/><path d="M161.08557,166.34034l-1.66192,8.06322" data-paper-data="{&quot;index&quot;:null}" fill="#ffa000" stroke="#00f314" stroke-width="2" stroke-linecap="round"/><path d="M162.31482,162.83384l8.19987,-0.73481" data-paper-data="{&quot;index&quot;:null}" fill="#ffa000" stroke="#00f314" stroke-width="2" stroke-linecap="round"/><path d="M159.15308,155.29654l1.00185,8.17092" data-paper-data="{&quot;index&quot;:null}" fill="#ffa000" stroke="#00f314" stroke-width="2" stroke-linecap="round"/><path d="M170.49623,156.66179c-0.0683,0.00017 -0.13589,-0.0015 -0.20161,-0.00437c0.03328,0.05561 0.08033,0.07694 0.15175,0.04292c0.02033,-0.00968 0.03665,-0.02278 0.04986,-0.03855zM171.36948,156.48336c-0.17342,1.55767 -1.04186,0.86201 -1.98191,0.0954l-0.77327,-0.06997c-0.16176,-0.01463 -0.29853,-0.10478 -0.37868,-0.23251c-0.87864,0.1224 -1.79491,0.22937 -2.1474,0.31285c0,0 -0.48666,0.11472 -0.60138,-0.37194c-0.11473,-0.48666 0.37194,-0.60138 0.37194,-0.60138c0.81554,-0.19128 5.0708,-1.47919 5.63178,-0.28215c0.29576,0.63113 0.17215,0.97197 -0.12108,1.14968z" fill="#00f314" stroke="none" stroke-width="0.5" stroke-linecap="butt"/></g><g fill="none" stroke="#8b00ff" stroke-width="0.5"><path d="M276.96569,156.1457c0,3.22729 -2.42115,5.84352 -5.40781,5.84352c-2.98665,0 -5.40781,-2.61623 -5.40781,-5.84352c0,-3.22729 2.42115,-5.84352 5.40781,-5.84352c2.98665,0 5.40781,2.61623 5.40781,5.84352z" stroke-linecap="butt"/><path d="M274.70299,155.73571c0,3.10536 -1.4304,5.62277 -3.19489,5.62277c-1.7645,0 -3.19489,-2.51741 -3.19489,-5.62277c0,-3.10536 1.4304,-5.62277 3.19489,-5.62277c1.7645,0 3.19489,2.51741 3.19489,5.62277z" stroke-linecap="butt"/><path d="M275.70457,152.49149c-0.34741,1.08759 -2.38289,1.72363 -4.74605,1.43789c-1.59716,-0.19312 -2.96025,-0.76089 -3.71034,-1.46155" stroke-linecap="butt"/><path d="M271.54238,158.43539c2.53472,-0.02536 4.61217,0.69387 4.64017,1.60645c0.028,0.91258 -2.0041,1.67292 -4.5388,1.69829c-2.53472,0.02536 -4.61218,-0.69387 -4.64018,-1.60645c-0.028,-0.91258 2.0041,-1.67292 4.53881,-1.69829z" stroke-linecap="butt"/><path d="M271.44973,151.16841l0.18541,10.78548" stroke-linecap="round"/><path d="M266.07283,155.96612l10.56839,0.37843" stroke-linecap="round"/></g><path d="M243.20247,108.43682c-1.17035,-0.94692 5.26252,24.23121 -15.9149,24.7748c-20.95924,4.35765 -16.71034,-27.55506 -16.71034,-27.55506" fill="none" stroke="#f0f400" stroke-width="3.5" stroke-linecap="round"/><g><path d="M167.88464,113.14641c-0.00956,0.24942 -0.15212,0.44648 -0.3184,0.44011c-0.16629,-0.00637 -0.29334,-0.21375 -0.28377,-0.46319c0.00956,-0.24942 0.15212,-0.44647 0.3184,-0.44009c0.16629,0.00637 0.29334,0.21375 0.28377,0.46318z" fill="#ff0000" stroke="none" stroke-width="0" stroke-linecap="butt"/><path d="M166.98905,123.55534l-18.44226,-2.15031l1.84394,-29.28012l19.12612,3.13884" fill="none" stroke="#ff0000" stroke-width="3.5" stroke-linecap="round"/><path d="M149.15445,105.55002l17.89736,3.81349" fill="none" stroke="#ff0000" stroke-width="3.5" stroke-linecap="round"/></g><g><path d="M180.11889,128.13625c0,1.90487 -1.27397,3.44907 -2.84549,3.44907c-1.57152,0 -2.84549,-1.5442 -2.84549,-3.44907c0,-1.90487 1.27397,-3.44907 2.84549,-3.44907c1.57152,0 2.84549,1.5442 2.84549,3.44907z" data-paper-data="{&quot;index&quot;:null}" fill="#ffa000" stroke="none" stroke-width="0" stroke-linecap="butt"/><path d="M173.75905,141.10359c0,0 1.79245,-10.77088 3.90641,-10.5379c2.11396,0.23297 3.91195,11.39954 3.91195,11.39954z" data-paper-data="{&quot;index&quot;:null}" fill="#ffa000" stroke="none" stroke-width="0" stroke-linecap="butt"/><path d="M173.586,147.48662l3.5808,-8.65929" data-paper-data="{&quot;index&quot;:null}" fill="#ffa000" stroke="#ffa000" stroke-width="2" stroke-linecap="round"/><path d="M179.82258,139.96553l-3.5808,8.65929" data-paper-data="{&quot;index&quot;:null}" fill="#ffa000" stroke="#ffa000" stroke-width="2" stroke-linecap="round"/><path d="M177.8177,135.87652l7.25816,-5.92659" data-paper-data="{&quot;index&quot;:null}" fill="#ffa000" stroke="#ffa000" stroke-width="2" stroke-linecap="round"/><path d="M169.45104,140.61681l6.15976,-7.06041" data-paper-data="{&quot;index&quot;:null}" fill="#ffa000" stroke="#ffa000" stroke-width="2" stroke-linecap="round"/><path d="M175.41591,128.89718c0,0 -2.90877,0.25962 -3.16564,1.0799c-0.25687,0.82027 2.66538,0.73943 2.30323,1.6741c-0.36215,0.93469 -3.37955,1.10381 -3.37955,1.10381" fill="none" stroke="#ffa000" stroke-width="3.5" stroke-linecap="round"/></g><g><path d="M173.28895,72.2152c0,2.15885 -1.44383,3.90896 -3.22489,3.90896c-1.78106,0 -3.22489,-1.7501 -3.22489,-3.90896c0,-2.15885 1.44383,-3.90895 3.22489,-3.90895c1.78106,0 3.22489,1.75009 3.22489,3.90895z" fill="#ff0000" stroke="none" stroke-width="0" stroke-linecap="butt"/><path d="M166.37667,92.02545l3.5808,-8.65929" fill="none" stroke="#ff0000" stroke-width="2" stroke-linecap="round"/><path d="M172.61325,84.12497l-3.58081,8.65928" fill="none" stroke="#ff0000" stroke-width="2" stroke-linecap="round"/><path d="M170.60837,80.41535l7.25816,-5.92659" fill="none" stroke="#ff0000" stroke-width="2" stroke-linecap="round"/><path d="M170.29846,80.60287l-6.15976,-7.06042" fill="none" stroke="#ff0000" stroke-width="2" stroke-linecap="round"/><path d="M166.92912,85.26303c0,0 1.61848,-10.77087 3.52728,-10.5379c1.9088,0.23297 3.53229,11.39954 3.53229,11.39954z" fill="#ff0000" stroke="none" stroke-width="0" stroke-linecap="butt"/><path d="M167.85884,87.46572v-9.10556h5.10107v9.10556z" fill="#ff0000" stroke="none" stroke-width="0" stroke-linecap="butt"/></g><g><path d="M223.90141,104.32693c1.77547,-0.14081 3.35317,1.48966 3.52384,3.64176c0.17068,2.15209 -1.13027,4.01088 -2.90575,4.15169c-1.77547,0.14081 -3.35316,-1.48967 -3.52384,-3.64176c-0.17068,-2.15209 1.13026,-4.01087 2.90575,-4.15168z" data-paper-data="{&quot;index&quot;:null}" fill="#e5e800" stroke="none" stroke-width="0" stroke-linecap="butt"/><path d="M230.51786,115.48125l7.16278,6.04152" data-paper-data="{&quot;index&quot;:null}" fill="none" stroke="#e5e800" stroke-width="2" stroke-linecap="round"/><path d="M229.02664,117.23089l6.48663,6.76231" data-paper-data="{&quot;index&quot;:null}" fill="none" stroke="#e5e800" stroke-width="2" stroke-linecap="round"/><path d="M219.12532,111.11937l8.33847,4.27496" data-paper-data="{&quot;index&quot;:null}" fill="none" stroke="#e5e800" stroke-width="2" stroke-linecap="round"/><path d="M228.44341,119.17439c0,0 -5.56984,-9.04709 -4.55906,-9.6625c1.01078,-0.6154 8.29735,7.38648 8.29735,7.38648z" data-paper-data="{&quot;index&quot;:null}" fill="#e5e800" stroke="none" stroke-width="0" stroke-linecap="butt"/><path d="M229.28642,119.81218l-5.96644,-6.87845l3.85342,-3.34248l5.96643,6.87846z" data-paper-data="{&quot;index&quot;:null}" fill="#e5e800" stroke="none" stroke-width="0" stroke-linecap="butt"/><path d="M226.81817,110.04084l-8.33847,-4.27495" data-paper-data="{&quot;index&quot;:null}" fill="none" stroke="#e5e800" stroke-width="2" stroke-linecap="round"/></g><path d="M181.41967,96.53541l0.74417,33.67337c0,0 20.306,-4.23282 20.65051,-13.95305c0.52927,-14.93309 -21.39468,-19.72032 -21.39468,-19.72032z" fill="none" stroke="#ffa000" stroke-width="3.5" stroke-linecap="round"/><path d="M152.79137,157.00642c0,0 -18.9818,2.20716 -19.31235,10.27253c-0.33055,8.06536 2.1266,21.16565 12.464,22.73652c10.3374,1.57088 15.84754,-3.02925 14.9294,-11.2313c-0.91814,-8.20205 -13.55973,-4.10901 -13.55973,-4.10901" fill="none" stroke="#00f314" stroke-width="3.5" stroke-linecap="round"/><path d="M177.5824,189.26215l1.50664,-30.13274c0,0 18.35358,1.84195 18.35358,9.99859c0,8.15664 -15.88817,6.16352 -15.88817,6.16352l12.8749,13.55973" fill="none" stroke="#00f2ff" stroke-width="3.5" stroke-linecap="round"/><path d="M238.05334,173.78488c0,8.51004 -7.32801,15.40879 -16.36756,15.40879c-9.03955,0 -16.36756,-6.89875 -16.36756,-15.40879c0,-8.51004 7.32801,-15.40879 16.36756,-15.40879c9.03955,0 16.36756,6.89875 16.36756,15.40879z" fill="none" stroke="#4e00ff" stroke-width="3.5" stroke-linecap="butt"/><path d="M255.25623,156.60295c0,0 4.49935,24.12869 8.01175,26.42955c2.17304,1.42349 6.28157,-18.21167 8.3801,-17.95736c1.63339,0.19794 8.3622,19.21172 8.56428,19.06243c2.56636,-1.89597 10.03771,-28.08716 10.03771,-28.08716" fill="none" stroke="#8b00ff" stroke-width="3.5" stroke-linecap="round"/></g></g></svg>
